<?xml version="1.0" standalone="no"?>
<!DOCTYPE svg PUBLIC "-//W3C//DTD SVG 20010904//EN"
 "http://www.w3.org/TR/2001/REC-SVG-20010904/DTD/svg10.dtd">
<svg version="1.0" xmlns="http://www.w3.org/2000/svg"
 width="557.000000pt" height="281.000000pt" viewBox="0 0 557.000000 281.000000"
 preserveAspectRatio="xMidYMid meet">
<metadata>
Created by potrace 1.16, written by Peter Selinger 2001-2019
</metadata>
<g transform="translate(0.000000,281.000000) scale(0.100000,-0.100000)"
fill="#000000" stroke="none">
<path d="M4537 2626 c-70 -26 -97 -66 -97 -147 0 -46 4 -55 35 -85 58 -55 146
-58 212 -8 128 98 5 297 -150 240z"/>
<path d="M4344 2612 c-6 -4 -23 -28 -38 -54 -15 -27 -29 -48 -31 -48 -2 0 -17
23 -35 50 -30 46 -35 50 -71 50 l-40 0 3 -132 3 -133 34 -3 c44 -4 52 10 45
83 -5 53 -4 57 8 39 38 -63 53 -84 58 -84 3 0 17 21 31 46 l26 46 7 -61 c4
-33 11 -63 15 -66 5 -3 24 -2 41 2 l33 6 -7 125 c-4 69 -9 129 -12 134 -6 10
-55 10 -70 0z"/>
<path d="M3975 2604 c-59 -14 -93 -59 -81 -108 5 -21 63 -66 86 -66 5 0 21 -5
37 -11 26 -9 26 -11 10 -21 -14 -7 -31 -5 -64 7 -44 17 -45 17 -61 -6 l-17
-24 -6 30 c-4 17 -7 60 -8 97 -1 89 -4 95 -48 90 l-36 -5 5 -76 c3 -42 3 -98
-1 -126 l-6 -50 -27 39 -27 39 20 25 c27 35 25 93 -3 119 -33 30 -62 36 -144
28 l-73 -7 1 -139 c1 -117 4 -139 15 -134 8 3 28 5 44 5 27 0 29 2 29 40 0 22
3 40 8 40 4 0 23 -18 42 -40 l35 -41 88 7 c63 5 87 11 87 20 0 17 5 17 30 4
45 -24 180 -8 202 24 4 6 8 29 8 52 0 36 -4 43 -32 57 -18 9 -52 21 -75 27
-51 13 -60 40 -12 40 17 0 39 -5 49 -10 16 -8 22 -5 37 16 16 25 16 27 -2 40
-10 8 -26 14 -34 14 -9 0 -25 2 -36 4 -11 2 -29 2 -40 0z"/>
<path d="M3430 2485 c0 -85 -2 -95 -21 -105 -29 -16 -65 -5 -73 22 -3 13 -6
56 -6 96 l0 72 -41 0 -40 0 7 -87 c3 -49 7 -98 9 -111 5 -58 85 -94 163 -72
64 17 82 48 82 140 0 43 -3 92 -6 109 -6 27 -10 31 -40 31 l-34 0 0 -95z"/>
<path d="M3053 2563 c-51 -4 -53 -5 -53 -34 0 -27 2 -29 40 -29 l40 0 2 -57
c1 -32 1 -79 0 -105 l-3 -48 46 0 45 0 -5 83 c-4 45 -8 92 -11 105 -4 19 0 22
25 22 48 0 58 8 53 40 -4 30 -5 30 -66 28 -33 -1 -85 -3 -113 -5z"/>
<path d="M2865 2545 c-3 -8 -7 -22 -10 -30 -2 -8 -14 -15 -25 -15 -15 0 -20 7
-20 25 0 20 -5 25 -24 25 -17 0 -26 -7 -30 -25 -4 -16 -13 -25 -26 -25 -16 0
-20 -7 -20 -30 0 -20 5 -30 15 -30 9 0 15 -9 15 -25 0 -18 -5 -25 -20 -25 -16
0 -20 -7 -20 -30 0 -21 5 -30 16 -30 12 0 14 -7 9 -30 -6 -28 -5 -30 24 -30
30 0 35 6 32 43 -2 12 5 17 24 17 24 0 26 -3 21 -25 -6 -23 -4 -25 29 -25 32
0 35 2 35 30 0 26 4 30 26 30 20 0 25 4 20 16 -3 9 -6 22 -6 30 0 8 -7 14 -15
14 -22 0 -18 38 5 45 25 8 29 65 5 65 -11 0 -14 7 -9 25 5 22 3 25 -20 25 -15
0 -29 -7 -31 -15z"/>
<path d="M1100 2338 c-66 -13 -229 -67 -275 -91 -70 -35 -121 -77 -146 -120
-22 -38 -24 -53 -24 -157 1 -80 8 -148 24 -222 32 -155 90 -350 109 -372 21
-22 97 -18 136 8 33 21 33 40 0 225 -16 88 -27 186 -28 246 -1 88 2 106 24
150 21 43 34 55 89 83 144 74 169 29 190 -343 14 -242 -8 -539 -43 -573 -11
-11 -31 -10 -122 8 -248 48 -378 46 -422 -6 l-24 -28 5 -235 c6 -257 20 -376
67 -560 55 -210 118 -306 210 -318 90 -12 175 51 253 190 l45 77 4 -87 c5
-106 25 -155 71 -175 23 -9 88 -13 237 -13 234 0 250 5 270 72 6 21 13 133 17
249 l6 211 51 -26 c43 -22 63 -26 141 -26 78 0 97 4 147 28 109 54 128 104
135 368 5 183 5 187 -17 209 -20 20 -30 22 -77 17 -79 -8 -97 -27 -89 -98 3
-30 2 -95 -1 -144 -5 -77 -10 -92 -33 -118 -31 -35 -72 -39 -101 -11 -10 11
-25 46 -33 79 -14 55 -36 299 -36 393 l0 39 148 7 c243 11 259 21 248 165 l-6
88 70 12 c84 15 116 10 123 -21 16 -66 74 -807 84 -1074 6 -169 6 -172 -16
-183 -55 -30 -76 10 -87 164 -10 135 -10 135 -93 135 -113 0 -112 1 -86 -310
11 -122 19 -179 29 -189 8 -8 36 -18 63 -22 61 -10 573 -10 672 0 120 12 115
-7 106 376 -4 176 -11 324 -16 330 -14 14 -137 9 -156 -7 -13 -11 -15 -43 -12
-232 l4 -220 -26 -15 c-37 -20 -82 -1 -104 45 -45 95 -71 385 -62 704 6 213
20 306 65 410 20 47 81 110 107 110 40 0 45 -10 39 -83 -5 -59 -2 -78 14 -107
39 -72 172 -111 256 -76 l39 16 -7 -157 c-11 -269 21 -785 59 -950 30 -129 55
-143 260 -150 179 -6 352 9 403 34 65 34 67 48 66 463 -1 531 -25 819 -78 936
-20 43 -30 54 -62 64 -43 15 -185 9 -408 -16 -153 -18 -149 -19 -160 45 -14
88 -103 178 -204 207 -83 24 -205 16 -263 -18 -58 -34 -115 -92 -149 -151 -15
-27 -30 -45 -33 -40 -2 4 -8 33 -12 63 -10 77 -29 118 -58 125 -20 5 -341 -29
-372 -39 -7 -2 -20 52 -33 133 -52 325 -121 468 -241 501 -47 12 -118 -1 -167
-30 -113 -71 -170 -298 -190 -765 -9 -198 21 -565 60 -737 l13 -58 -37 0 c-62
0 -64 -6 -65 -249 0 -235 -3 -249 -54 -271 -40 -16 -113 -5 -136 20 -17 18
-17 32 -6 187 54 784 55 796 55 1243 1 440 1 446 -22 520 -18 54 -34 84 -62
112 l-38 38 -88 -1 c-49 -1 -109 -5 -134 -11z m868 -386 c44 -165 77 -404 60
-434 -7 -14 -22 -18 -73 -18 -93 0 -95 4 -95 208 0 176 13 293 37 330 14 22
16 23 33 7 10 -9 27 -51 38 -93z m1788 -652 c24 -52 64 -980 44 -1005 -18 -21
-242 -22 -259 -1 -25 30 -39 931 -16 989 8 20 26 25 121 36 91 11 97 10 110
-19z m-2726 -370 c20 -6 46 -19 59 -31 21 -20 23 -28 18 -83 -3 -34 -18 -95
-33 -136 -54 -152 -150 -308 -174 -284 -19 19 -30 118 -30 259 0 155 13 250
38 278 17 19 38 18 122 -3z"/>
<path d="M4767 2323 l-88 -4 2 -115 c0 -63 -2 -118 -5 -121 -3 -4 -6 1 -6 10
0 14 -11 17 -64 17 -75 0 -76 1 -76 123 l0 77 -41 0 c-33 0 -40 -3 -35 -16 3
-9 6 -72 6 -140 l0 -125 108 5 c59 3 160 9 225 12 l117 6 0 34 0 34 -75 0
c-68 0 -75 2 -75 20 0 18 7 20 65 20 l65 0 0 30 0 30 -70 0 c-63 0 -70 2 -70
20 0 18 7 20 69 20 39 0 73 5 76 11 12 19 -4 59 -23 57 -9 -1 -57 -4 -105 -5z"/>
<path d="M4024 2292 c-30 -3 -33 -8 -69 -105 -53 -144 -66 -171 -76 -155 -5 7
-9 38 -9 68 0 30 -3 84 -6 120 l-6 66 -35 -4 -35 -4 4 -135 3 -134 90 3 c86 3
89 4 95 28 5 22 12 25 57 28 48 3 51 1 57 -24 l7 -27 147 6 c122 6 151 10 172
26 33 25 33 86 0 113 -21 17 -22 20 -6 36 22 25 20 58 -4 82 -17 17 -33 20
-116 20 l-96 0 2 -107 c1 -60 1 -119 1 -132 l-1 -24 -18 24 c-10 13 -38 67
-62 119 -24 52 -49 100 -54 105 -6 6 -25 9 -42 7z"/>
<path d="M3576 2273 l-29 -5 7 -81 c3 -45 6 -106 6 -134 l0 -53 39 0 38 0 -5
50 c-4 50 -4 50 24 50 16 0 46 3 67 6 33 6 37 10 37 37 l0 30 -65 -7 c-65 -7
-65 -6 -65 19 0 22 4 25 39 25 21 0 53 3 70 6 26 6 31 11 31 35 l0 29 -82 -1
c-46 -1 -96 -4 -112 -6z"/>
<path d="M3069 2261 c-70 -22 -105 -72 -103 -148 2 -102 107 -161 209 -119 93
39 101 193 13 250 -30 19 -86 27 -119 17z m90 -97 c42 -53 16 -114 -49 -114
-45 0 -70 26 -70 72 0 64 80 91 119 42z"/>
<path d="M3263 2256 c3 -7 9 -70 13 -140 l7 -126 33 0 33 0 3 72 3 73 55 -66
c43 -52 63 -68 89 -72 19 -4 35 -5 35 -4 1 1 -1 63 -4 137 l-5 135 -39 3 -39
3 7 -73 6 -73 -50 55 c-27 30 -52 63 -55 73 -5 13 -17 17 -52 17 -34 0 -44 -3
-40 -14z"/>
<path d="M2797 2246 c-51 -19 -65 -32 -77 -75 -32 -115 23 -201 130 -201 46 0
95 21 109 48 8 15 4 22 -18 35 -25 15 -30 15 -41 2 -13 -16 -67 -20 -87 -7
-17 11 -33 59 -26 79 17 49 61 67 101 42 15 -9 24 -8 45 6 35 22 34 41 -1 59
-44 23 -94 27 -135 12z"/>
</g>
</svg>
